custom-analysis
version=1
nRows=9
nColumns=42
inDegrees=no

This file contains tibia displacement and acting force.

Units are S.I. units (seconds, meters, Newtons, ...)
Angles are in degrees.

endheader
time	APT	SIT	knee_angle	aACL_R_force	pACL_R_force	aPCL_R_force	pPCL_R_force	aMCL_R_force	mMCL_R_force	pMCL_R_force	aLCL_R_force	mLCL_R_force	pLCL_R_force	aACL_R_length	pACL_R_length	aPCL_R_length	pPCL_R_length	aMCL_R_length	mMCL_R_length	pMCL_R_length	aLCL_R_length	mLCL_R_length	pLCL_R_length	aACL_R_strain	pACL_R_strain	aPCL_R_strain	pPCL_R_strain	aMCL_R_strain	mMCL_R_strain	pMCL_R_strain	aLCL_R_strain	mLCL_R_strain	pLCL_R_strain	femur_lat_meniscii_force_r	femur_lat_meniscii_torque_r	femur_med_meniscii_force_r	femur_med_meniscii_torque_r	femur_lat_tibia_force_r	femur_lat_tibia_torque_r	femur_med_tibia_force_r	femur_med_tibia_torque_r
      0.23611415	      0.00145826	      0.00053006	     15.00005728	     41.88436293	     49.20004784	      0.00000000	      0.00000000	      0.00000000	      0.00000000	      0.00000000	     -0.45117053	      0.00000000	     -3.66901457	      0.03407738	      0.02773042	      0.03001478	      0.02956798	      0.05589837	      0.05940434	      0.06022315	      0.05732603	      0.05506922	      0.05234779	      0.07480986	      0.07238247	     -0.03474863	     -0.01727680	     -0.03668339	     -0.00650835	     -0.00831329	      0.02409599	     -0.02218408	      0.00009720	     33.38246246	      8.16872285	     74.53966405	     18.29407189	      0.00000000	      0.00000000	     55.09029044	      1.16435687
      0.23659207	      0.00146098	      0.00052988	     15.00005728	     41.86306576	     49.14520937	      0.00000000	      0.00000000	      0.00000000	      0.00000000	      0.00000000	     -0.56579261	      0.00000000	     -3.77767463	      0.03407726	      0.02772973	      0.03001433	      0.02956786	      0.05590083	      0.05940672	      0.06022561	      0.05732400	      0.05506726	      0.05234585	      0.07480607	      0.07235582	     -0.03476322	     -0.01728080	     -0.03664101	     -0.00646852	     -0.00827274	      0.02405981	     -0.02221897	      0.00006017	     33.54769827	      8.20876727	     74.53174071	     18.29313250	      0.00000000	      0.00000000	     54.47315405	      1.15030191
      0.23733372	      0.00146517	      0.00052963	     15.00005728	     41.82113732	     49.04937596	      0.00000000	      0.00000000	      0.00000000	      0.00000000	      0.00000000	     -0.75022614	      0.00000000	     -3.95167620	      0.03407703	      0.02772861	      0.03001360	      0.02956766	      0.05590467	      0.05941045	      0.06022946	      0.05732074	      0.05506409	      0.05234272	      0.07479872	      0.07231261	     -0.03478656	     -0.01728755	     -0.03657479	     -0.00640626	     -0.00820944	      0.02400158	     -0.02227525	      0.00000040	     33.74803115	      8.23554891	     74.48288728	     18.26201578	      0.00000000	      0.00000000	     53.52818122	      1.12963898
      0.24027511	      0.00148182	      0.00053060	     15.00005728	     41.39119239	     48.40196309	      0.00000000	      0.00000000	      0.00000000	      0.00000000	      0.00000000	     -2.90048038	      0.00000000	      0.00000000	      0.03407477	      0.02772287	      0.03000864	      0.02956483	      0.05591853	      0.05942384	      0.06024330	      0.05730461	      0.05504828	      0.05232706	      0.07472738	      0.07209078	     -0.03494610	     -0.01738143	     -0.03633597	     -0.00618226	     -0.00798149	      0.02371342	     -0.02255601	     -0.00029884	     35.02641997	      8.55015536	     74.71804855	     18.39352606	      0.00000000	      0.00000000	     50.81334072	      1.06905227
      0.24390282	      0.00150261	      0.00053564	     15.00005728	     41.33770952	     48.08470733	      0.00000000	      0.00000000	      0.00000000	      0.00000000	      0.00000000	     -4.03648356	      0.00000000	      0.00000000	      0.03407030	      0.02771435	      0.02999760	      0.02955657	      0.05593260	      0.05943739	      0.06025732	      0.05727770	      0.05502167	      0.05230058	      0.07458635	      0.07176115	     -0.03530124	     -0.01765606	     -0.03609358	     -0.00595562	     -0.00775061	      0.02323263	     -0.02302848	     -0.00080469	     36.71322053	      8.94171249	     74.92667054	     18.43504919	      0.00000000	      0.00000000	     48.90896928	      1.02714813
      0.24431341	      0.00150496	      0.00053617	     15.00005728	     41.35746035	     48.07768542	      0.00000000	      0.00000000	      0.00000000	      0.00000000	      0.00000000	     -4.07123658	      0.00000000	      0.00000000	      0.03406991	      0.02771351	      0.02999628	      0.02955558	      0.05593428	      0.05943902	      0.06025900	      0.05727448	      0.05501848	      0.05229740	      0.07457403	      0.07172883	     -0.03534354	     -0.01768883	     -0.03606458	     -0.00592836	     -0.00772303	      0.02317508	     -0.02308517	     -0.00086546	     36.86864533	      8.97272119	     75.76635858	     18.56275018	      0.00000000	      0.00000000	     48.61161273	      1.02101578
      0.24488946	      0.00150824	      0.00053683	     15.00005728	     41.40728405	     48.09242230	      0.00000000	      0.00000000	      0.00000000	      0.00000000	      0.00000000	     -4.05663073	      0.00000000	      0.00000000	      0.03406944	      0.02771242	      0.02999448	      0.02955425	      0.05593673	      0.05944140	      0.06026144	      0.05726996	      0.05501400	      0.05229294	      0.07455921	      0.07168667	     -0.03540156	     -0.01773326	     -0.03602233	     -0.00588856	     -0.00768286	      0.02309448	     -0.02316460	     -0.00095064	     37.14878103	      9.04424061	     75.73574574	     18.57630776	      0.00000000	      0.00000000	     48.13142191	      1.01188938
      0.24570797	      0.00151285	      0.00053762	     15.00005728	     41.45582661	     48.09196793	      0.00000000	      0.00000000	      0.00000000	      0.00000000	      0.00000000	     -4.05620775	      0.00000000	      0.00000000	      0.03406891	      0.02771103	      0.02999202	      0.02955246	      0.05594041	      0.05944498	      0.06026509	      0.05726358	      0.05500767	      0.05228663	      0.07454272	      0.07163269	     -0.03548076	     -0.01779270	     -0.03595903	     -0.00582877	     -0.00762272	      0.02298047	     -0.02327702	     -0.00107124	     37.53734863	      9.14422928	     75.58610962	     18.56864423	      0.00000000	      0.00000000	     47.34093629	      0.99633708
      0.24708860	      0.00152046	      0.00053867	     15.00005728	     41.46054177	     48.01124408	      0.00000000	      0.00000000	      0.00000000	      0.00000000	      0.00000000	     -4.16831798	      0.00000000	      0.00000000	      0.03406822	      0.02770887	      0.02998807	      0.02954967	      0.05594699	      0.05945140	      0.06027162	      0.05725280	      0.05499696	      0.05227594	      0.07452083	      0.07154934	     -0.03560749	     -0.01788516	     -0.03584563	     -0.00572134	     -0.00751514	      0.02278783	     -0.02346721	     -0.00127536	     38.14943554	      9.28282514	     75.40790784	     18.58486105	      0.00000000	      0.00000000	     45.79649071	      0.96318115
